<svg width="103" height="103" viewBox="0 0 103 103" fill="none" xmlns="http://www.w3.org/2000/svg">
<g clip-path="url(#clip0_29_334)">
<path d="M87.5858 87.5879C107.516 67.6576 107.516 35.3443 87.5858 15.4141C67.6556 -4.51615 35.3423 -4.51615 15.4121 15.4141C-4.51816 35.3443 -4.51816 67.6576 15.4121 87.5879C35.3423 107.518 67.6556 107.518 87.5858 87.5879Z" fill="white"/>
<path fill-rule="evenodd" clip-rule="evenodd" d="M87.2464 15.7536C78.1115 6.59134 65.4758 0.929899 51.5 0.929899C37.5515 0.929899 24.8885 6.59134 15.7536 15.7536C6.59134 24.8885 0.929899 37.5515 0.929899 51.5C0.929899 65.4485 6.59134 78.1115 15.7536 87.2464C24.9158 96.4087 37.5515 102.043 51.5 102.043C65.4758 102.043 78.1115 96.3813 87.2464 87.2464C96.4086 78.0842 102.043 65.4485 102.043 51.5C102.043 37.5515 96.4086 24.8885 87.2464 15.7536ZM51.5 0C65.722 0 78.6038 5.77085 87.9302 15.0972C97.2565 24.4235 103.027 37.3054 103.027 51.5274C103.027 65.7493 97.2565 78.6312 87.9302 87.9575C78.6038 97.2839 65.722 103.055 51.5 103.055C37.278 103.055 24.3962 97.2839 15.0698 87.9575C5.77084 78.6038 0 65.722 0 51.5C0 37.278 5.77084 24.3962 15.0972 15.0698C24.3962 5.77084 37.278 0 51.5 0Z" fill="white"/>
<path fill-rule="evenodd" clip-rule="evenodd" d="M85.387 17.6133C76.7171 8.94333 64.7378 3.58274 51.5004 3.58274C38.263 3.58274 26.2837 8.94333 17.6138 17.6133C8.94382 26.2832 3.58322 38.2625 3.58322 51.4999C3.58322 64.7373 8.94382 76.7166 17.6138 85.3865C26.2837 94.0565 38.263 99.4171 51.5004 99.4171C64.7378 99.4171 76.7171 94.0565 85.387 85.3865C94.0569 76.7166 99.4175 64.7373 99.4175 51.4999C99.4449 38.2625 94.0569 26.2832 85.387 17.6133ZM51.5004 2.62549C64.9839 2.62549 77.2094 8.09549 86.0708 16.9295C94.9048 25.7909 100.375 38.0164 100.375 51.4999C100.375 64.9834 94.9048 77.2089 86.0708 86.0703C77.2367 94.9043 65.0113 100.374 51.5004 100.374C38.0168 100.374 25.7914 94.9043 16.9574 86.0703C8.12332 77.2362 2.65332 65.0108 2.65332 51.4999C2.65332 38.0164 8.12332 25.7909 16.9574 16.9569C25.7914 8.09548 38.0168 2.62549 51.5004 2.62549Z" fill="#111111"/>
<path fill-rule="evenodd" clip-rule="evenodd" d="M32.1359 32.6284C34.9803 32.6284 37.3051 34.9532 37.3051 37.7976C37.3051 40.642 34.9803 42.9667 32.1359 42.9667C29.2915 42.9667 26.9668 40.642 26.9668 37.7976C26.9668 34.9532 29.2915 32.6284 32.1359 32.6284Z" fill="white"/>
<path fill-rule="evenodd" clip-rule="evenodd" d="M35.4727 34.4883C34.6249 33.6405 33.4488 33.1208 32.136 33.1208C30.8232 33.1208 29.6472 33.6405 28.7994 34.4883C27.9515 35.3362 27.4319 36.5122 27.4319 37.825C27.4319 39.1378 27.9515 40.3139 28.7994 41.1617C29.6472 42.0096 30.8232 42.5292 32.136 42.5292C33.4215 42.5292 34.5975 42.0096 35.4727 41.1617C36.3206 40.3139 36.8402 39.1378 36.8402 37.825C36.8402 36.5122 36.3206 35.3362 35.4727 34.4883ZM32.136 32.1636C33.695 32.1636 35.1172 32.7926 36.1291 33.8046C37.1411 34.8165 37.7701 36.2387 37.7701 37.7977C37.7701 39.3566 37.1411 40.7788 36.1291 41.7908C35.1172 42.8027 33.695 43.4318 32.136 43.4318C30.5771 43.4318 29.1549 42.8027 28.143 41.7908C27.131 40.7788 26.502 39.3566 26.502 37.7977C26.502 36.2387 27.131 34.8165 28.143 33.8046C29.1822 32.7926 30.5771 32.1636 32.136 32.1636Z" fill="#111111"/>
<path fill-rule="evenodd" clip-rule="evenodd" d="M45.2912 32.6284C48.1356 32.6284 50.4604 34.9532 50.4604 37.7976C50.4604 40.642 48.1356 42.9667 45.2912 42.9667C42.4468 42.9667 40.1221 40.642 40.1221 37.7976C40.1221 34.9532 42.4195 32.6284 45.2912 32.6284Z" fill="white"/>
<path fill-rule="evenodd" clip-rule="evenodd" d="M48.6007 34.4883C47.7528 33.6405 46.5768 33.1208 45.264 33.1208C43.9512 33.1208 42.7751 33.6405 41.9273 34.4883C41.0794 35.3362 40.5598 36.5122 40.5598 37.825C40.5598 39.1378 41.0794 40.3139 41.9273 41.1617C42.7751 42.0096 43.9512 42.5292 45.264 42.5292C46.5768 42.5292 47.7528 42.0096 48.6007 41.1617C49.4485 40.3139 49.9682 39.1378 49.9682 37.825C49.9955 36.5122 49.4759 35.3362 48.6007 34.4883ZM45.2913 32.1636C46.8503 32.1636 48.2725 32.7926 49.2844 33.8046C50.2964 34.8165 50.9254 36.2387 50.9254 37.7977C50.9254 39.3566 50.2964 40.7788 49.2844 41.7908C48.2725 42.8027 46.8503 43.4318 45.2913 43.4318C43.7324 43.4318 42.3102 42.8027 41.2982 41.7908C40.2863 40.7788 39.6572 39.3566 39.6572 37.7977C39.6572 36.2387 40.2863 34.8165 41.2982 33.8046C42.3102 32.7926 43.7324 32.1636 45.2913 32.1636Z" fill="#111111"/>
<path fill-rule="evenodd" clip-rule="evenodd" d="M58.4191 32.6284C61.2635 32.6284 63.5883 34.9532 63.5883 37.7976C63.5883 40.642 61.2635 42.9667 58.4191 42.9667C55.5747 42.9667 53.25 40.642 53.25 37.7976C53.25 34.9532 55.5747 32.6284 58.4191 32.6284Z" fill="white"/>
<path fill-rule="evenodd" clip-rule="evenodd" d="M61.756 34.4883C60.9081 33.6405 59.7321 33.1208 58.4193 33.1208C57.1338 33.1208 55.9304 33.6405 55.0826 34.4883C54.2347 35.3362 53.7151 36.5122 53.7151 37.825C53.7151 39.1378 54.2347 40.3139 55.0826 41.1617C55.9304 42.0096 57.1065 42.5292 58.4193 42.5292C59.7321 42.5292 60.8808 42.0096 61.756 41.1617C62.6038 40.3139 63.1235 39.1378 63.1235 37.825C63.1235 36.5122 62.6038 35.3362 61.756 34.4883ZM58.4193 32.1636C59.9782 32.1636 61.4004 32.7926 62.4124 33.8046C63.4243 34.8165 64.0534 36.2387 64.0534 37.7977C64.0534 39.3566 63.4243 40.7788 62.4124 41.7908C61.4004 42.8027 59.9782 43.4318 58.4193 43.4318C56.8603 43.4318 55.4381 42.8027 54.4262 41.7908C53.4142 40.7788 52.7852 39.3566 52.7852 37.7977C52.7852 36.2387 53.4142 34.8165 54.4262 33.8046C55.4655 32.7926 56.8603 32.1636 58.4193 32.1636Z" fill="#111111"/>
<path fill-rule="evenodd" clip-rule="evenodd" d="M71.5744 32.6284C74.4462 32.6284 76.7436 34.9532 76.7436 37.7976C76.7436 40.642 74.4188 42.9667 71.5744 42.9667C68.73 42.9667 66.4053 40.642 66.4053 37.7976C66.4053 34.9532 68.7027 32.6284 71.5744 32.6284Z" fill="white"/>
<path fill-rule="evenodd" clip-rule="evenodd" d="M74.8839 34.4883C74.036 33.6405 72.86 33.1208 71.5472 33.1208C70.2617 33.1208 69.0857 33.6405 68.2105 34.4883C67.3626 35.3362 66.843 36.5122 66.843 37.825C66.843 39.1378 67.3626 40.3139 68.2105 41.1617C69.0583 42.0096 70.2344 42.5292 71.5472 42.5292C72.86 42.5292 74.036 42.0096 74.8839 41.1617C75.7317 40.3139 76.2514 39.1378 76.2514 37.825C76.2787 36.5122 75.7591 35.3362 74.8839 34.4883ZM71.5745 32.1636C73.1335 32.1636 74.5557 32.7926 75.5676 33.8046C76.5796 34.8165 77.2086 36.2387 77.2086 37.7977C77.2086 39.3566 76.5796 40.7788 75.5676 41.7908C74.5557 42.8027 73.1335 43.4318 71.5745 43.4318C70.0156 43.4318 68.5934 42.8027 67.5814 41.7908C66.5695 40.7788 65.9404 39.3566 65.9404 37.7977C65.9404 36.2387 66.5695 34.8165 67.5814 33.8046C68.5934 32.7926 70.0156 32.1636 71.5745 32.1636Z" fill="#111111"/>
<path d="M31.3153 37.3325H10.3652V38.2624H31.3153V37.3325Z" fill="#111111"/>
<path fill-rule="evenodd" clip-rule="evenodd" d="M32.1359 70.727C34.9803 70.727 37.3051 68.4022 37.3051 65.5578C37.3051 62.7134 34.9803 60.3887 32.1359 60.3887C29.2915 60.3887 26.9668 62.7134 26.9668 65.5578C26.9668 68.4022 29.2915 70.727 32.1359 70.727Z" fill="#111111"/>
<path fill-rule="evenodd" clip-rule="evenodd" d="M36.1291 69.551C35.1172 70.563 33.695 71.192 32.136 71.192C30.5771 71.192 29.1549 70.563 28.143 69.551C27.131 68.5391 26.502 67.1169 26.502 65.5579C26.502 63.999 27.131 62.5768 28.143 61.5648C29.1549 60.5529 30.5771 59.9238 32.136 59.9238C33.695 59.9238 35.1172 60.5529 36.1291 61.5648C37.1411 62.5768 37.7701 63.999 37.7701 65.5579C37.7975 67.1169 37.1684 68.5117 36.1291 69.551ZM32.136 70.2621C33.4215 70.2621 34.5975 69.7425 35.4727 68.8946C36.3206 68.0468 36.8402 66.8707 36.8402 65.5579C36.8402 64.2725 36.3206 63.0691 35.4727 62.2212C34.6249 61.3734 33.4488 60.8537 32.136 60.8537C30.8232 60.8537 29.6472 61.3734 28.7994 62.2212C27.9515 63.0691 27.4319 64.2451 27.4319 65.5579C27.4319 66.8707 27.9515 68.0468 28.7994 68.8946C29.6746 69.7151 30.8506 70.2621 32.136 70.2621Z" fill="white"/>
<path d="M45.6152 70.7191C48.4646 70.5417 50.6307 68.088 50.4533 65.2386C50.2759 62.3892 47.8222 60.2231 44.9728 60.4005C42.1234 60.5779 39.9573 63.0316 40.1347 65.881C40.3121 68.7304 42.7658 70.8965 45.6152 70.7191Z" fill="#111111"/>
<path fill-rule="evenodd" clip-rule="evenodd" d="M49.2844 69.551C48.2725 70.563 46.8503 71.192 45.2913 71.192C43.7324 71.192 42.3102 70.563 41.2982 69.551C40.2863 68.5391 39.6572 67.1169 39.6572 65.5579C39.6572 63.999 40.2863 62.5768 41.2982 61.5648C42.3102 60.5529 43.7324 59.9238 45.2913 59.9238C46.8503 59.9238 48.2725 60.5529 49.2844 61.5648C50.2964 62.5768 50.9254 63.999 50.9254 65.5579C50.9254 67.1169 50.2964 68.5117 49.2844 69.551ZM45.2913 70.2621C46.6041 70.2621 47.7802 69.7425 48.628 68.8946C49.4759 68.0468 49.9955 66.8707 49.9955 65.5579C49.9955 64.2725 49.4759 63.0691 48.628 62.2212C47.7802 61.3734 46.6041 60.8537 45.2913 60.8537C43.9785 60.8537 42.8025 61.3734 41.9546 62.2212C41.1068 63.0691 40.5871 64.2451 40.5871 65.5579C40.5871 66.8707 41.1068 68.0468 41.9546 68.8946C42.8025 69.7151 43.9785 70.2621 45.2913 70.2621Z" fill="white"/>
<path fill-rule="evenodd" clip-rule="evenodd" d="M58.4191 70.727C61.2635 70.727 63.5883 68.4022 63.5883 65.5578C63.5883 62.7134 61.2635 60.3887 58.4191 60.3887C55.5747 60.3887 53.25 62.7134 53.25 65.5578C53.25 68.4022 55.5747 70.727 58.4191 70.727Z" fill="#111111"/>
<path fill-rule="evenodd" clip-rule="evenodd" d="M62.4123 69.551C61.4004 70.563 59.9782 71.192 58.4193 71.192C56.8603 71.192 55.4381 70.563 54.4262 69.551C53.4142 68.5391 52.7852 67.1169 52.7852 65.5579C52.7852 63.999 53.4142 62.5768 54.4262 61.5648C55.4381 60.5529 56.8603 59.9238 58.4193 59.9238C59.9782 59.9238 61.4004 60.5529 62.4123 61.5648C63.4243 62.5768 64.0533 63.999 64.0533 65.5579C64.0807 67.1169 63.4516 68.5117 62.4123 69.551ZM58.4193 70.2621C59.732 70.2621 60.8807 69.7425 61.7559 68.8946C62.6038 68.0468 63.1234 66.8707 63.1234 65.5579C63.1234 64.2725 62.6038 63.0691 61.7559 62.2212C60.9081 61.3734 59.732 60.8537 58.4193 60.8537C57.1338 60.8537 55.9304 61.3734 55.0826 62.2212C54.2347 63.0691 53.7151 64.2451 53.7151 65.5579C53.7151 66.8707 54.2347 68.0468 55.0826 68.8946C55.9578 69.7151 57.1338 70.2621 58.4193 70.2621Z" fill="white"/>
<path fill-rule="evenodd" clip-rule="evenodd" d="M71.5744 70.727C74.4462 70.727 76.7436 68.4022 76.7436 65.5578C76.7436 62.7134 74.4188 60.3887 71.5744 60.3887C68.73 60.3887 66.4053 62.7134 66.4053 65.5578C66.4053 68.4022 68.7027 70.727 71.5744 70.727Z" fill="#111111"/>
<path fill-rule="evenodd" clip-rule="evenodd" d="M75.5676 69.551C74.5557 70.563 73.1335 71.192 71.5745 71.192C70.0156 71.192 68.5934 70.563 67.5814 69.551C66.5695 68.5391 65.9404 67.1169 65.9404 65.5579C65.9404 63.999 66.5695 62.5768 67.5814 61.5648C68.5934 60.5529 70.0156 59.9238 71.5745 59.9238C73.1335 59.9238 74.5557 60.5529 75.5676 61.5648C76.5796 62.5768 77.2086 63.999 77.2086 65.5579C77.2086 67.1169 76.5796 68.5117 75.5676 69.551ZM71.5745 70.2621C72.8873 70.2621 74.0634 69.7425 74.9112 68.8946C75.7591 68.0468 76.2787 66.8707 76.2787 65.5579C76.2787 64.2725 75.7591 63.0691 74.9112 62.2212C74.0634 61.3734 72.8873 60.8537 71.5745 60.8537C70.2891 60.8537 69.113 61.3734 68.2378 62.2212C67.39 63.0691 66.8703 64.2451 66.8703 65.5579C66.8703 66.8707 67.39 68.0468 68.2378 68.8946C69.0857 69.7151 70.2617 70.2621 71.5745 70.2621Z" fill="white"/>
<path d="M90.2002 65.3662H12.9639V65.7491H90.2002V65.3662Z" fill="white"/>
<path d="M92.8254 65.0654H10.3652V65.9953H92.8254V65.0654Z" fill="white"/>
<path fill-rule="evenodd" clip-rule="evenodd" d="M52.3209 70.5902C53.4969 72.7509 55.7943 74.2278 58.4199 74.2278C61.0729 74.2278 63.3429 72.7509 64.519 70.5902H65.4489C66.6249 72.7509 68.9223 74.2278 71.5479 74.2278C74.8573 74.2278 77.6196 71.903 78.3034 68.8125H91.8963C85.1682 84.4567 69.6334 95.424 51.5004 95.424C33.3947 95.424 17.8326 84.4567 11.1045 68.8125H25.3538C26.0376 71.9304 28.7999 74.2278 32.1093 74.2278C34.7349 74.2278 37.0323 72.7509 38.2083 70.5902H39.1382C40.3143 72.7509 42.6117 74.2278 45.2373 74.2278C47.8629 74.2278 50.1603 72.7509 51.3363 70.5902H52.3209Z" fill="#111111"/>
<path fill-rule="evenodd" clip-rule="evenodd" d="M54.6448 73.6809C53.5782 73.0519 52.6756 72.1493 52.0466 71.0827H51.6637C51.0346 72.1493 50.1321 73.0519 49.0654 73.6809C47.9441 74.3373 46.6586 74.7202 45.2638 74.7202C43.8689 74.7202 42.5835 74.3373 41.4621 73.6809C40.3955 73.0519 39.4929 72.1493 38.8639 71.0827H38.481C37.8519 72.1493 36.9494 73.0519 35.8827 73.6809C34.7614 74.3373 33.4759 74.7202 32.0811 74.7202C30.3307 74.7202 28.717 74.1185 27.459 73.1066C26.2556 72.1493 25.3804 70.8365 24.9428 69.3049H11.8421C15.2335 76.8808 20.7582 83.3081 27.6231 87.8208C34.4879 92.3336 42.6929 94.9592 51.4996 94.9592C60.3336 94.9592 68.5386 92.3336 75.3761 87.8208C82.241 83.3081 87.7656 76.8808 91.157 69.3049H78.6855C78.2752 70.8365 77.3727 72.1493 76.1693 73.1066C74.9112 74.1185 73.2975 74.7202 71.5471 74.7202C70.1523 74.7202 68.8668 74.3373 67.7455 73.6809C66.6788 73.0519 65.7763 72.1493 65.1472 71.0827H64.7643C64.1353 72.1493 63.2327 73.0519 62.1661 73.6809C61.0447 74.3373 59.7593 74.7202 58.3644 74.7202C57.0516 74.7202 55.7388 74.3373 54.6448 73.6809ZM52.7303 70.3716C53.2773 71.4109 54.1252 72.2587 55.1098 72.8604C56.067 73.4348 57.2157 73.763 58.4191 73.763C59.6225 73.763 60.7712 73.4348 61.7285 72.8604C62.7404 72.2587 63.5609 71.4109 64.1079 70.3716L64.2447 70.1254H65.7489L65.8857 70.3716C66.4327 71.4109 67.2532 72.2587 68.2651 72.8604C69.2224 73.4348 70.3711 73.763 71.5745 73.763C73.1061 73.763 74.5009 73.2433 75.6223 72.3408C76.7436 71.4382 77.5641 70.1528 77.8923 68.7032L77.9744 68.3477H92.6066L92.3331 69.0041C88.887 77.045 83.1435 83.8277 75.9231 88.5866C68.9215 93.2088 60.5251 95.8891 51.5269 95.8891C42.5288 95.8891 34.1323 93.2088 27.1308 88.5866C19.9104 83.8277 14.1669 77.0176 10.7208 69.0041L10.4473 68.3477H25.7906L25.8727 68.7032C26.2009 70.1528 27.0214 71.4382 28.1427 72.3408C29.2367 73.216 30.6589 73.763 32.1905 73.763C33.3939 73.763 34.5426 73.4348 35.4998 72.8604C36.5118 72.2587 37.3323 71.4109 37.8793 70.3716L38.016 70.1254H39.5203L39.657 70.3716C40.204 71.4109 41.0519 72.2587 42.0365 72.8604C42.9937 73.4348 44.1424 73.763 45.3458 73.763C46.5492 73.763 47.6979 73.4348 48.6552 72.8604C49.6671 72.2587 50.4876 71.4109 51.0346 70.3716L51.1714 70.1254H52.6756L52.7303 70.3716Z" fill="white"/>
<path fill-rule="evenodd" clip-rule="evenodd" d="M52.3209 32.41C53.4969 30.2493 55.7943 28.7724 58.4199 28.7724C61.0729 28.7724 63.3429 30.2493 64.519 32.41H65.4489C66.6249 30.2493 68.9223 28.7724 71.5479 28.7724C74.8573 28.7724 77.6196 31.0972 78.3034 34.1877H91.8963C85.1682 18.5435 69.6334 7.57617 51.5004 7.57617C33.3947 7.57617 17.8326 18.5435 11.1045 34.1877H25.3538C26.0376 31.0698 28.7999 28.7724 32.1093 28.7724C34.7349 28.7724 37.0323 30.2493 38.2083 32.41H39.1382C40.3143 30.2493 42.6117 28.7724 45.2373 28.7724C47.8629 28.7724 50.1603 30.2493 51.3363 32.41H52.3209Z" fill="#111111"/>
<path fill-rule="evenodd" clip-rule="evenodd" d="M55.1098 30.1395C54.0978 30.7412 53.2773 31.5891 52.7303 32.6284L52.5936 32.8745H51.0893L50.9526 32.6284C50.4056 31.5891 49.5851 30.7412 48.5731 30.1395C47.6159 29.5652 46.4672 29.237 45.2638 29.237C44.0604 29.237 42.9117 29.5652 41.9544 30.1395C40.9425 30.7412 40.122 31.5891 39.575 32.6284L39.4382 32.8745H37.934L37.7973 32.6284C37.2502 31.5891 36.4298 30.7412 35.4178 30.1395C34.4606 29.5652 33.3119 29.237 32.1085 29.237C30.5769 29.237 29.182 29.7566 28.0607 30.6592C26.9393 31.5617 26.1188 32.8472 25.7906 34.2967L25.7086 34.6523H10.3926L10.6661 33.9959C14.1122 25.955 19.8557 19.1722 27.0761 14.4133C34.105 9.79114 42.5014 7.11084 51.4996 7.11084C60.4977 7.11084 68.8942 9.79114 75.8958 14.4133C83.1162 19.1722 88.8596 25.9823 92.3057 33.9959L92.5792 34.6523H77.947L77.865 34.2967C77.5368 32.8472 76.7163 31.5617 75.5949 30.6592C74.5009 29.784 73.0787 29.237 71.5471 29.237C70.3437 29.237 69.195 29.5652 68.2378 30.1395C67.2258 30.7412 66.4053 31.5891 65.8583 32.6284L65.7216 32.8745H64.2173L64.0806 32.6284C63.5336 31.5891 62.6857 30.7412 61.7011 30.1395C60.7439 29.5652 59.5952 29.237 58.3918 29.237C57.2157 29.2096 56.0944 29.5652 55.1098 30.1395ZM52.0466 31.9446C52.6756 30.878 53.5782 29.9754 54.6448 29.3464C55.7662 28.69 57.0516 28.3071 58.4465 28.3071C59.8413 28.3071 61.1268 28.69 62.2481 29.3464C63.3148 29.9754 64.2173 30.878 64.8464 31.9446H65.2293C65.8583 30.878 66.7609 29.9754 67.8275 29.3464C68.9489 28.69 70.2343 28.3071 71.6292 28.3071C73.3796 28.3071 74.9932 28.9088 76.2513 29.9207C77.4547 30.878 78.3299 32.1908 78.7675 33.7224H91.2391C87.8477 26.1464 82.323 19.7192 75.4582 15.1791C68.5933 10.6663 60.3883 8.04074 51.5816 8.04074C42.6655 8.04074 34.4606 10.6663 27.6231 15.1791C20.7582 19.7192 15.2335 26.1191 11.8421 33.7224H25.0248C25.4351 32.1908 26.3376 30.878 27.541 29.9207C28.7991 28.9088 30.4128 28.3071 32.1632 28.3071C33.558 28.3071 34.8435 28.69 35.9648 29.3464C37.0315 29.9754 37.934 30.878 38.563 31.9446H38.9459C39.575 30.878 40.4775 29.9754 41.5442 29.3464C42.6655 28.69 43.951 28.3071 45.3458 28.3071C46.7407 28.3071 48.0261 28.69 49.1475 29.3464C50.2141 29.9754 51.1167 30.878 51.7457 31.9446H52.0466Z" fill="white"/>
<path fill-rule="evenodd" clip-rule="evenodd" d="M32.1365 34.3789C34.0237 34.3789 35.5553 35.9105 35.5553 37.7977C35.5553 39.6848 34.0237 41.2164 32.1365 41.2164C30.2494 41.2164 28.7178 39.6848 28.7178 37.7977C28.7178 35.9105 30.2494 34.3789 32.1365 34.3789Z" fill="white"/>
<path d="M44.444 37.3325H37.3057V38.2624H44.444V37.3325Z" fill="#111111"/>
<path d="M45.2918 41.2437C47.1799 41.2437 48.7105 39.7131 48.7105 37.825C48.7105 35.9369 47.1799 34.4062 45.2918 34.4062C43.4037 34.4062 41.873 35.9369 41.873 37.825C41.873 39.7131 43.4037 41.2437 45.2918 41.2437Z" fill="white"/>
<path d="M57.5993 37.3325H50.4609V38.2624H57.5993V37.3325Z" fill="#111111"/>
<path fill-rule="evenodd" clip-rule="evenodd" d="M58.4197 34.3789C60.3069 34.3789 61.8385 35.9105 61.8385 37.7977C61.8385 39.6848 60.3069 41.2164 58.4197 41.2164C56.5326 41.2164 55.001 39.6848 55.001 37.7977C55.001 35.9105 56.5326 34.3789 58.4197 34.3789Z" fill="white"/>
<path d="M70.7272 37.3325H63.5889V38.2624H70.7272V37.3325Z" fill="#111111"/>
<path fill-rule="evenodd" clip-rule="evenodd" d="M71.575 34.3789C73.4621 34.3789 74.9937 35.9105 74.9937 37.7977C74.9937 39.6848 73.4621 41.2164 71.575 41.2164C69.6879 41.2164 68.1562 39.6848 68.1562 37.7977C68.1562 35.9105 69.6879 34.3789 71.575 34.3789Z" fill="white"/>
<path d="M92.1148 37.3325H76.7441V38.2624H92.1148V37.3325Z" fill="#111111"/>
<path fill-rule="evenodd" clip-rule="evenodd" d="M71.5744 60.3887C68.73 60.3887 66.4053 62.7134 66.4053 65.5578C66.4053 68.4022 68.73 70.727 71.5744 70.727C74.4462 70.727 76.7436 68.4022 76.7436 65.5578C76.7436 62.6861 74.4188 60.3887 71.5744 60.3887Z" fill="white"/>
<path fill-rule="evenodd" clip-rule="evenodd" d="M67.5814 61.5648C68.5934 60.5529 70.0156 59.9238 71.5745 59.9238C73.1335 59.9238 74.5557 60.5529 75.5676 61.5648C76.5796 62.5768 77.2086 63.999 77.2086 65.5579C77.2086 67.1169 76.5796 68.5391 75.5676 69.551C74.5557 70.563 73.1335 71.192 71.5745 71.192C70.0156 71.192 68.5934 70.563 67.5814 69.551C66.5695 68.5391 65.9404 67.1169 65.9404 65.5579C65.9404 63.999 66.5695 62.5768 67.5814 61.5648ZM71.5745 60.8537C70.2891 60.8537 69.113 61.3734 68.2378 62.2212C67.39 63.0691 66.8703 64.2451 66.8703 65.5579C66.8703 66.8707 67.39 68.0468 68.2378 68.8946C69.0857 69.7425 70.2617 70.2621 71.5745 70.2621C72.8873 70.2621 74.0634 69.7425 74.9112 68.8946C75.7591 68.0468 76.2787 66.8707 76.2787 65.5579C76.2787 64.2725 75.7591 63.0691 74.9112 62.2212C74.036 61.3734 72.86 60.8537 71.5745 60.8537Z" fill="#111111"/>
<path fill-rule="evenodd" clip-rule="evenodd" d="M58.4191 60.3887C55.5747 60.3887 53.25 62.7134 53.25 65.5578C53.25 68.4022 55.5747 70.727 58.4191 70.727C61.2635 70.727 63.5883 68.4022 63.5883 65.5578C63.5883 62.6861 61.2909 60.3887 58.4191 60.3887Z" fill="white"/>
<path fill-rule="evenodd" clip-rule="evenodd" d="M54.4262 61.5648C55.4381 60.5529 56.8603 59.9238 58.4193 59.9238C59.9782 59.9238 61.4004 60.5529 62.4124 61.5648C63.4243 62.5768 64.0534 63.999 64.0534 65.5579C64.0534 67.1169 63.4243 68.5391 62.4124 69.551C61.4004 70.563 59.9782 71.192 58.4193 71.192C56.8603 71.192 55.4381 70.563 54.4262 69.551C53.4142 68.5391 52.7852 67.1169 52.7852 65.5579C52.7852 63.999 53.4142 62.5768 54.4262 61.5648ZM58.4193 60.8537C57.1338 60.8537 55.9304 61.3734 55.0826 62.2212C54.2347 63.0691 53.7151 64.2451 53.7151 65.5579C53.7151 66.8707 54.2347 68.0468 55.0826 68.8946C55.9304 69.7425 57.1065 70.2621 58.4193 70.2621C59.7321 70.2621 60.8808 69.7425 61.756 68.8946C62.6038 68.0468 63.1235 66.8707 63.1235 65.5579C63.1235 64.2725 62.6038 63.0691 61.756 62.2212C60.9081 61.3734 59.7321 60.8537 58.4193 60.8537Z" fill="#111111"/>
<path d="M45.2912 70.727C48.1461 70.727 50.4604 68.4126 50.4604 65.5578C50.4604 62.703 48.1461 60.3887 45.2912 60.3887C42.4364 60.3887 40.1221 62.703 40.1221 65.5578C40.1221 68.4126 42.4364 70.727 45.2912 70.727Z" fill="white"/>
<path fill-rule="evenodd" clip-rule="evenodd" d="M41.2981 61.5648C42.31 60.5529 43.7322 59.9238 45.2912 59.9238C46.8501 59.9238 48.2723 60.5529 49.2843 61.5648C50.2962 62.5768 50.9253 63.999 50.9253 65.5579C50.9253 67.1169 50.2962 68.5391 49.2843 69.551C48.2723 70.563 46.8501 71.192 45.2912 71.192C43.7322 71.192 42.31 70.563 41.2981 69.551C40.2861 68.5391 39.6571 67.1169 39.6571 65.5579C39.6297 63.999 40.2861 62.5768 41.2981 61.5648ZM45.2912 60.8537C43.9784 60.8537 42.8023 61.3734 41.9545 62.2212C41.1066 63.0691 40.587 64.2451 40.587 65.5579C40.587 66.8707 41.1066 68.0468 41.9545 68.8946C42.8023 69.7425 43.9784 70.2621 45.2912 70.2621C46.604 70.2621 47.78 69.7425 48.6279 68.8946C49.4757 68.0468 49.9954 66.8707 49.9954 65.5579C49.9954 64.2725 49.4757 63.0691 48.6279 62.2212C47.7527 61.3734 46.5766 60.8537 45.2912 60.8537Z" fill="#111111"/>
<path fill-rule="evenodd" clip-rule="evenodd" d="M32.1359 60.3887C29.2915 60.3887 26.9668 62.7134 26.9668 65.5578C26.9668 68.4022 29.2915 70.727 32.1359 70.727C34.9803 70.727 37.3051 68.4022 37.3051 65.5578C37.3051 62.6861 35.0077 60.3887 32.1359 60.3887Z" fill="white"/>
<path fill-rule="evenodd" clip-rule="evenodd" d="M28.143 61.5648C29.1549 60.5529 30.5771 59.9238 32.136 59.9238C33.695 59.9238 35.1172 60.5529 36.1291 61.5648C37.1411 62.5768 37.7701 63.999 37.7701 65.5579C37.7701 67.1169 37.1411 68.5391 36.1291 69.551C35.1172 70.563 33.695 71.192 32.136 71.192C30.5771 71.192 29.1549 70.563 28.143 69.551C27.131 68.5391 26.502 67.1169 26.502 65.5579C26.502 63.999 27.131 62.5768 28.143 61.5648ZM32.136 60.8537C30.8232 60.8537 29.6472 61.3734 28.7994 62.2212C27.9515 63.0691 27.4319 64.2451 27.4319 65.5579C27.4319 66.8707 27.9515 68.0468 28.7994 68.8946C29.6472 69.7425 30.8232 70.2621 32.136 70.2621C33.4215 70.2621 34.5975 69.7425 35.4727 68.8946C36.3206 68.0468 36.8402 66.8707 36.8402 65.5579C36.8402 64.2725 36.3206 63.0691 35.4727 62.2212C34.6249 61.3734 33.4488 60.8537 32.136 60.8537Z" fill="#111111"/>
<path d="M93.3456 65.0654H72.3955V65.9953H93.3456V65.0654Z" fill="#111111"/>
<path fill-rule="evenodd" clip-rule="evenodd" d="M71.575 62.1118C69.6879 62.1118 68.1562 63.6434 68.1562 65.5306C68.1562 67.4177 69.6879 68.9493 71.575 68.9493C73.4621 68.9493 74.9937 67.4177 74.9937 65.5306C74.9937 63.6434 73.4621 62.1118 71.575 62.1118Z" fill="white"/>
<path d="M66.4059 65.0654H59.2676V65.9953H66.4059V65.0654Z" fill="#111111"/>
<path fill-rule="evenodd" clip-rule="evenodd" d="M58.4197 62.1118C56.5326 62.1118 55.001 63.6434 55.001 65.5306C55.001 67.4177 56.5326 68.9493 58.4197 68.9493C60.3069 68.9493 61.8385 67.4177 61.8385 65.5306C61.8385 63.6434 60.3342 62.1118 58.4197 62.1118Z" fill="white"/>
<path d="M53.2506 65.0654H46.1123V65.9953H53.2506V65.0654Z" fill="#111111"/>
<path d="M45.2918 68.9767C47.1799 68.9767 48.7105 67.446 48.7105 65.5579C48.7105 63.6698 47.1799 62.1392 45.2918 62.1392C43.4037 62.1392 41.873 63.6698 41.873 65.5579C41.873 67.446 43.4037 68.9767 45.2918 68.9767Z" fill="white"/>
<path d="M40.1227 65.0654H32.9844V65.9953H40.1227V65.0654Z" fill="#111111"/>
<path fill-rule="evenodd" clip-rule="evenodd" d="M32.1365 62.1118C30.2494 62.1118 28.7178 63.6434 28.7178 65.5306C28.7178 67.4177 30.2494 68.9493 32.1365 68.9493C34.0237 68.9493 35.5553 67.4177 35.5553 65.5306C35.5553 63.6434 34.0237 62.1118 32.1365 62.1118Z" fill="white"/>
<path d="M26.9674 65.0654H11.2686V65.9953H26.9674V65.0654Z" fill="#111111"/>
<path fill-rule="evenodd" clip-rule="evenodd" d="M89.9818 36.2661C90.8296 36.2661 91.5134 36.9499 91.5134 37.7977C91.5134 38.6456 90.8296 39.3293 89.9818 39.3293C89.1339 39.3293 88.4502 38.6456 88.4502 37.7977C88.4502 36.9772 89.1339 36.2661 89.9818 36.2661Z" fill="white"/>
<path fill-rule="evenodd" clip-rule="evenodd" d="M88.0127 38.0713C88.0127 37.9893 87.9854 37.9072 87.9854 37.8252C87.9854 36.7312 88.8879 35.8286 89.9819 35.8286C91.0759 35.8286 91.9784 36.7312 91.9784 37.8252C91.9784 38.9192 91.0759 39.8217 89.9819 39.8217" fill="white"/>
<path fill-rule="evenodd" clip-rule="evenodd" d="M87.5469 38.1256C87.5469 38.0709 87.5469 38.0162 87.5195 37.9615C87.5195 37.9068 87.5195 37.8521 87.5195 37.7974C87.5195 37.1137 87.793 36.512 88.2306 36.047C88.6682 35.6094 89.2973 35.3359 89.981 35.3359C90.6648 35.3359 91.2665 35.6094 91.7314 36.047C92.169 36.4846 92.4425 37.1137 92.4425 37.7974C92.4425 38.4812 92.169 39.0829 91.7314 39.5478C91.2938 39.9854 90.6648 40.2589 89.981 40.2589V39.329C90.3913 39.329 90.7742 39.1649 91.0477 38.8914C91.3212 38.6179 91.4853 38.235 91.4853 37.8248C91.4853 37.4145 91.3212 37.0316 91.0477 36.7581C90.7742 36.4846 90.3913 36.3205 89.981 36.3205C89.5708 36.3205 89.1879 36.4846 88.9144 36.7581C88.6409 37.0316 88.4768 37.4145 88.4768 37.8248C88.4768 37.8795 88.4768 37.9068 88.4768 37.9342C88.4768 37.9615 88.4768 38.0162 88.4768 38.0162L87.5469 38.1256Z" fill="#111111"/>
<path fill-rule="evenodd" clip-rule="evenodd" d="M12.6361 67.0896C11.7882 67.0896 11.1045 66.4058 11.1045 65.558C11.1045 64.7101 11.7882 64.0264 12.6361 64.0264C13.4839 64.0264 14.1677 64.7101 14.1677 65.558C14.1677 66.4058 13.4839 67.0896 12.6361 67.0896Z" fill="white"/>
<path fill-rule="evenodd" clip-rule="evenodd" d="M14.6318 65.2846C14.6318 65.3666 14.6591 65.4487 14.6591 65.5307C14.6591 66.6247 13.7566 67.5273 12.6626 67.5273C11.5686 67.5273 10.666 66.6247 10.666 65.5307C10.666 64.4367 11.5686 63.5342 12.6626 63.5342" fill="white"/>
<path fill-rule="evenodd" clip-rule="evenodd" d="M15.0968 65.2295C15.0968 65.2842 15.0968 65.3389 15.1242 65.3936C15.1242 65.4483 15.1242 65.503 15.1242 65.5577C15.1242 66.2414 14.8507 66.8431 14.4131 67.3081C13.9755 67.7457 13.3464 68.0192 12.6627 68.0192C11.9789 68.0192 11.3772 67.7457 10.9123 67.3081C10.4747 66.8705 10.2012 66.2414 10.2012 65.5577C10.2012 64.8739 10.4747 64.2722 10.9123 63.8073C11.3499 63.3697 11.9789 63.0962 12.6627 63.0962V64.0261C12.2524 64.0261 11.8695 64.1902 11.596 64.4637C11.3225 64.7372 11.1584 65.1201 11.1584 65.5303C11.1584 65.9406 11.3225 66.3235 11.596 66.597C11.8695 66.8705 12.2524 67.0346 12.6627 67.0346C13.0729 67.0346 13.4558 66.8705 13.7293 66.597C14.0028 66.3235 14.1669 65.9406 14.1669 65.5303C14.1669 65.4756 14.1669 65.4483 14.1669 65.4209C14.1669 65.3936 14.1669 65.3389 14.1669 65.3115L15.0968 65.2295Z" fill="#111111"/>
<path fill-rule="evenodd" clip-rule="evenodd" d="M86.3712 51.1447H84.4841V48.4644H86.3712C87.2464 48.4644 87.7387 48.984 87.7387 49.8045C87.7387 50.6524 87.2191 51.1447 86.3712 51.1447ZM86.6174 46.3037H82.679C82.2414 46.3037 82.0773 46.4405 82.0773 46.9054V56.1223C82.0773 56.5873 82.2414 56.724 82.679 56.724H83.855C84.2926 56.724 84.4567 56.5873 84.4567 56.1223V53.3327H86.59C88.8054 53.3327 90.1729 52.0199 90.1729 49.8319C90.2002 47.6165 88.8054 46.3037 86.6174 46.3037ZM77.838 46.3037H76.6073C75.9235 46.3037 75.7868 46.3311 75.568 46.8234L73.8176 50.8985L71.9031 46.8234C71.6569 46.3037 71.4381 46.3037 70.7544 46.3037H69.5236C69.086 46.3037 69.0313 46.5499 69.2228 46.9054L72.5868 53.6335L71.4108 56.1223C71.2467 56.4779 71.274 56.724 71.7116 56.724H73.0791C73.7082 56.724 73.8449 56.642 74.0364 56.2044L78.1115 46.9328C78.2756 46.5225 78.2483 46.3037 77.838 46.3037ZM64.7374 46.3037H57.7085C57.2709 46.3037 57.1068 46.4405 57.1068 46.9054V56.1223C57.1068 56.5873 57.2709 56.724 57.7085 56.724H58.8845C59.3221 56.724 59.4862 56.5873 59.4862 56.1223V48.4917H62.9596V56.1223C62.9596 56.5873 63.0964 56.724 63.5613 56.724H64.7374C65.175 56.724 65.3117 56.5873 65.3117 56.1223V46.9054C65.3391 46.4405 65.175 46.3037 64.7374 46.3037ZM51.8009 46.3037H50.7616C50.2966 46.3037 50.1872 46.3858 49.9684 46.7687L47.2608 51.719L44.5805 46.7687C44.3617 46.4131 44.2249 46.3311 43.7326 46.3311H42.7754C42.3378 46.3311 42.1737 46.4678 42.1737 46.9054V56.1497C42.1737 56.5873 42.3378 56.724 42.7754 56.724H43.8147C44.2523 56.724 44.389 56.5873 44.389 56.1497V52.8404C44.389 51.8558 44.307 51.0353 43.9514 49.531H44.0882C44.389 50.5977 44.6899 51.4729 45.1822 52.266L46.2488 54.1258C46.4129 54.454 46.5497 54.5634 46.9326 54.5634H47.6163C47.9719 54.5634 48.1086 54.454 48.2727 54.1258L49.312 52.266C49.7496 51.4729 50.1599 50.543 50.4607 49.531H50.5975C50.2419 50.9806 50.1052 51.9378 50.1052 52.8404V56.177C50.1052 56.6146 50.2419 56.7514 50.6795 56.7514H51.7735C52.2385 56.7514 52.3752 56.6146 52.3752 56.177V46.9328C52.4026 46.4405 52.2658 46.3037 51.8009 46.3037ZM33.8593 50.5703L34.6251 52.8404H32.2456L33.0114 50.543C33.367 49.5037 33.3396 48.4644 33.3396 48.4644H33.4764C33.5037 48.4917 33.5311 49.531 33.8593 50.5703ZM38.2626 56.1223L34.7618 46.7687C34.6251 46.3858 34.4336 46.3037 34.0234 46.3037H32.902C32.4918 46.3037 32.3277 46.3858 32.1636 46.796L28.6628 56.1223C28.526 56.5326 28.6081 56.6967 29.0457 56.6967H30.0576C30.7961 56.6967 30.9875 56.5873 31.1243 56.1497L31.5892 54.7822H35.1994L35.6644 56.1497C35.8011 56.5873 36.0199 56.6967 36.7584 56.6967H37.8524C38.29 56.6967 38.4267 56.5052 38.2626 56.1223ZM24.15 46.3037H22.974C22.5364 46.3037 22.3996 46.4405 22.3996 46.9054V54.536H19.9655V46.9054C19.9655 46.4405 19.8287 46.3037 19.3911 46.3037H18.2151C17.7501 46.3037 17.6134 46.4405 17.6134 46.9054V54.536H15.2066V46.9054C15.2066 46.4405 15.0425 46.3037 14.6049 46.3037H13.4015C12.9639 46.3037 12.7998 46.4405 12.7998 46.9054V56.1223C12.7998 56.5873 12.9639 56.724 13.4015 56.724H24.1774C24.6423 56.724 24.7791 56.5873 24.7791 56.1223V46.9054C24.7517 46.4405 24.615 46.3037 24.15 46.3037Z" fill="#111111"/>
<path fill-rule="evenodd" clip-rule="evenodd" d="M52.0742 88.1492C52.84 86.5902 53.8793 85.3048 54.2349 83.6091C54.5904 81.9134 54.2075 79.8348 53.1956 78.3305C52.6486 77.5374 51.9101 76.881 51.0896 76.3066C51.3358 76.7716 51.5819 77.2912 51.8828 78.1117C52.2383 79.1237 52.6759 80.5732 52.4024 81.6946C52.1563 82.8159 51.2264 83.6364 50.5153 84.7304C49.8042 85.7971 49.3119 87.1372 49.4486 88.5868C49.5854 89.8449 50.1871 91.2124 50.8708 92.5799C50.9529 91.2671 51.3905 89.5987 52.0742 88.1492Z" fill="white"/>
<path fill-rule="evenodd" clip-rule="evenodd" d="M53.0589 86.754C52.7854 87.2463 52.4846 87.7112 52.2384 88.2309C51.9102 88.942 51.6367 89.6804 51.4179 90.4189C51.1991 91.1847 51.0897 91.9231 51.0624 92.5795L51.035 93.2906L50.7068 92.6342C50.3786 91.9505 50.0504 91.2667 49.7769 90.583C49.5308 89.8992 49.3393 89.2428 49.2573 88.5864C49.1752 87.8753 49.2573 87.2189 49.4487 86.5899C49.6402 85.8788 49.9684 85.2224 50.3513 84.6207C50.5701 84.2925 50.8162 83.9643 51.0624 83.6634C51.582 83.007 52.047 82.378 52.2111 81.6395C52.3205 81.0925 52.2931 80.4908 52.1837 79.8618C52.0743 79.2601 51.8829 78.631 51.6914 78.1387C51.5547 77.7285 51.4179 77.4003 51.2812 77.0994C51.1444 76.7986 51.035 76.5798 50.8983 76.3336L50.5427 75.6772L51.1718 76.1148C51.582 76.4157 51.9923 76.7165 52.3478 77.0447C52.7034 77.3729 53.0316 77.7558 53.3324 78.1661C53.8521 78.9319 54.2076 79.8344 54.3991 80.7643C54.5905 81.7216 54.5905 82.7062 54.4264 83.5814C54.1803 84.8121 53.6333 85.7694 53.0589 86.754ZM51.9102 88.0668C52.1564 87.5471 52.4572 87.0548 52.7307 86.5625C53.2777 85.6053 53.8247 84.6754 54.0709 83.5814C54.235 82.7609 54.235 81.8036 54.0435 80.9011C53.8794 80.0259 53.5239 79.1507 53.0316 78.4396C52.7581 78.0567 52.4572 77.7011 52.1017 77.3729C51.9376 77.2088 51.7735 77.0721 51.582 76.9353L51.6367 77.0174C51.7735 77.3182 51.9102 77.6464 52.047 78.084C52.2384 78.6037 52.4299 79.2054 52.5393 79.8618C52.6487 80.5182 52.7034 81.1746 52.5666 81.7763C52.3752 82.5968 51.8829 83.2532 51.3359 83.9369C51.1171 84.2378 50.8709 84.5386 50.6521 84.8668C50.2692 85.4138 49.9684 86.0429 49.7769 86.7266C49.6128 87.301 49.5308 87.93 49.6128 88.5864C49.6675 89.1881 49.859 89.8445 50.1051 90.5009C50.2692 90.9659 50.488 91.4308 50.7068 91.8958C50.7615 91.4035 50.8709 90.8838 51.035 90.3368C51.2812 89.571 51.5547 88.7779 51.9102 88.0668Z" fill="white"/>
<path fill-rule="evenodd" clip-rule="evenodd" d="M56.4505 87.6566C56.9701 86.6173 57.6812 85.7694 57.9274 84.6754C58.1735 83.5541 57.9274 82.1866 57.2163 81.202C56.8334 80.6823 56.3411 80.2447 55.7941 79.8618C55.9582 80.1627 56.1223 80.5182 56.3411 81.0652C56.5872 81.7216 56.8607 82.6789 56.6966 83.4173C56.5325 84.1558 55.9035 84.7028 55.4112 85.4139C54.9189 86.125 54.5907 87.0002 54.6727 87.9574C54.7548 88.7779 55.165 89.6805 55.63 90.583C55.6573 89.7352 55.9582 88.6138 56.4505 87.6566Z" fill="white"/>
<path fill-rule="evenodd" clip-rule="evenodd" d="M57.1612 86.7815C56.9698 87.1097 56.7783 87.4106 56.6142 87.7388C56.3954 88.2037 56.204 88.696 56.0672 89.1883C55.9305 89.6806 55.8484 90.1729 55.8211 90.5832L55.7937 91.2943L55.4655 90.6652C55.2194 90.2003 55.0006 89.7627 54.8365 89.2977C54.6724 88.8328 54.5356 88.3952 54.4809 87.9576C54.4262 87.4926 54.4809 87.0277 54.6177 86.6174C54.7544 86.1251 54.9732 85.6875 55.2467 85.3046C55.4108 85.0858 55.5749 84.867 55.739 84.6756C56.0946 84.238 56.3954 83.8551 56.5048 83.3628C56.5869 83.0072 56.5595 82.6243 56.4775 82.2141C56.3954 81.8038 56.2587 81.4209 56.1493 81.0927C56.0399 80.8192 55.9578 80.6004 55.8758 80.409C55.7937 80.2175 55.7117 80.0534 55.6296 79.9167L55.2741 79.2603L55.9031 79.6705C56.1766 79.862 56.4501 80.0534 56.7236 80.2996C56.9698 80.5184 57.2159 80.7919 57.4074 81.0654C57.7629 81.585 58.0091 82.1867 58.1458 82.8158C58.2826 83.4448 58.2826 84.1286 58.1458 84.7029C57.927 85.4961 57.5441 86.1251 57.1612 86.7815ZM56.2587 87.5747C56.4228 87.2191 56.6416 86.8909 56.833 86.5901C57.2159 85.961 57.5715 85.3593 57.7356 84.6482C57.845 84.1012 57.845 83.4995 57.7356 82.8978C57.6262 82.3235 57.38 81.7765 57.0518 81.2842C56.8604 81.038 56.6689 80.7919 56.4228 80.6004C56.3681 80.5457 56.3134 80.5184 56.2587 80.4637C56.3134 80.6278 56.3954 80.7919 56.4775 80.9833C56.6142 81.3115 56.751 81.7218 56.833 82.1594C56.9151 82.597 56.9424 83.0346 56.8604 83.4448C56.7236 83.9918 56.3681 84.4294 56.0125 84.8944C55.8484 85.0858 55.6843 85.2773 55.5476 85.4961C55.3014 85.8516 55.0826 86.2619 54.9732 86.6995C54.8638 87.0824 54.8091 87.4926 54.8638 87.9029C54.8912 88.2858 55.0279 88.7234 55.192 89.1336C55.3014 89.3798 55.4108 89.6259 55.5202 89.8994C55.5749 89.6259 55.6296 89.3524 55.7117 89.0516C55.8484 88.5866 56.0399 88.067 56.2587 87.5747Z" fill="white"/>
<path fill-rule="evenodd" clip-rule="evenodd" d="M47.6167 87.2462C48.0543 86.289 48.6834 85.5232 48.8748 84.5112C49.0663 83.4993 48.8201 82.2412 48.2184 81.3386C47.8902 80.8737 47.4526 80.4908 46.9603 80.1626C47.0971 80.4361 47.2612 80.7643 47.4526 81.2566C47.6714 81.8583 47.9449 82.7335 47.8082 83.4172C47.6714 84.101 47.1244 84.5933 46.7142 85.2497C46.3039 85.9061 46.0031 86.6992 46.1125 87.5744C46.1945 88.3402 46.5774 89.1334 46.9877 89.9539C46.9603 89.1607 47.2065 88.1214 47.6167 87.2462Z" fill="white"/>
<path fill-rule="evenodd" clip-rule="evenodd" d="M48.2452 86.4259C48.0811 86.7267 47.917 87.0002 47.7803 87.3284C47.5888 87.7387 47.4247 88.2036 47.3153 88.6412C47.2059 89.1062 47.1239 89.5438 47.1239 89.9267L47.0965 90.6651L46.7683 90.0087C46.5495 89.5985 46.3581 89.1882 46.194 88.778C46.0299 88.3677 45.9205 87.9575 45.8658 87.5746C45.8111 87.137 45.8658 86.7267 45.9478 86.3438C46.0572 85.9062 46.2487 85.496 46.4948 85.1404C46.6316 84.9216 46.7683 84.7302 46.9051 84.5661C47.2059 84.1832 47.4794 83.8003 47.5615 83.3627C47.6162 83.0618 47.5888 82.6789 47.5341 82.3234C47.4521 81.9678 47.3427 81.6123 47.2333 81.3114C47.1512 81.0653 47.0692 80.8738 46.9871 80.7097C46.9051 80.5456 46.823 80.4089 46.7683 80.2448L46.4128 79.5884L47.0418 79.9986C47.288 80.1627 47.5341 80.3542 47.7529 80.5456C47.9717 80.7644 48.1905 80.9832 48.3546 81.2294C48.6828 81.6943 48.9016 82.2413 49.011 82.8157C49.1204 83.39 49.1478 83.9917 49.0384 84.5387C48.9016 85.2498 48.5734 85.8242 48.2452 86.4259ZM47.4521 87.1643C47.5888 86.8361 47.7803 86.5353 47.9444 86.2344C48.2726 85.6601 48.5734 85.0857 48.7102 84.4567C48.7922 83.9644 48.7922 83.4174 48.6828 82.8704C48.5734 82.3507 48.382 81.8584 48.0811 81.4208C47.917 81.202 47.7256 80.9832 47.5341 80.7918L47.4794 80.7371C47.5341 80.8465 47.5888 80.9832 47.6435 81.12C47.7529 81.4208 47.8897 81.8037 47.9717 82.1866C48.0538 82.5969 48.0811 83.0071 47.9991 83.3627C47.8897 83.8823 47.5888 84.2926 47.288 84.7028C47.1512 84.8943 47.0145 85.0857 46.8777 85.2498C46.6589 85.578 46.4948 85.9609 46.3854 86.3712C46.3034 86.7267 46.2487 87.0823 46.3034 87.4652C46.3307 87.8207 46.4675 88.2036 46.6042 88.5865C46.6863 88.778 46.7683 88.9968 46.8777 89.1882C46.9051 88.9694 46.9598 88.7233 47.0145 88.4771C47.0692 88.0942 47.2333 87.6293 47.4521 87.1643Z" fill="white"/>
<path fill-rule="evenodd" clip-rule="evenodd" d="M52.0742 22.8372C52.84 21.2782 53.8793 19.9928 54.2349 18.2971C54.5904 16.6014 54.2075 14.5228 53.1956 13.0185C52.6486 12.2254 51.9101 11.569 51.0896 10.9946C51.3358 11.4596 51.5819 11.9792 51.8828 12.7997C52.2383 13.8117 52.6759 15.2612 52.4024 16.3826C52.1563 17.5039 51.2264 18.3244 50.5153 19.4184C49.8042 20.4851 49.3119 21.8252 49.4486 23.2748C49.5854 24.5329 50.1871 25.9004 50.8708 27.2679C50.9529 25.9551 51.3905 24.2867 52.0742 22.8372Z" fill="white"/>
<path fill-rule="evenodd" clip-rule="evenodd" d="M53.0589 21.4425C52.7854 21.9348 52.4846 22.3997 52.2384 22.9194C51.9102 23.6305 51.6367 24.3689 51.4179 25.1074C51.1991 25.8732 51.0897 26.6116 51.0624 27.268L51.035 27.9791L50.7068 27.3227C50.3786 26.639 50.0504 25.9552 49.7769 25.2715C49.5308 24.5877 49.3393 23.9313 49.2573 23.2749C49.1752 22.5638 49.2573 21.9074 49.4487 21.2784C49.6402 20.5673 49.9684 19.8835 50.3513 19.3092C50.5701 18.981 50.8162 18.6528 51.0624 18.3519C51.582 17.6955 52.047 17.0665 52.2111 16.328C52.3205 15.781 52.2931 15.1793 52.1837 14.5503C52.0743 13.9486 51.8829 13.3195 51.6914 12.8272C51.5547 12.417 51.4179 12.0888 51.2812 11.7879C51.1444 11.4871 51.035 11.2409 50.8983 11.0221L50.5427 10.3657L51.1718 10.8033C51.582 11.1042 51.9923 11.405 52.3478 11.7332C52.7034 12.0614 53.0316 12.4443 53.3324 12.8546C53.8521 13.6204 54.2076 14.5229 54.3991 15.4528C54.5905 16.4101 54.5905 17.3947 54.4264 18.2699C54.1803 19.5006 53.6333 20.4579 53.0589 21.4425ZM51.9102 22.7553C52.1564 22.2356 52.4572 21.7433 52.7307 21.251C53.2777 20.2938 53.8247 19.3639 54.0709 18.2699C54.235 17.4494 54.235 16.4921 54.0435 15.5896C53.8794 14.7144 53.5239 13.8392 53.0316 13.1281C52.7581 12.7452 52.4572 12.3896 52.1017 12.0614C51.9376 11.8973 51.7735 11.7606 51.582 11.6238L51.6367 11.7059C51.7735 12.0067 51.9102 12.3349 52.047 12.7452C52.2384 13.2648 52.4299 13.8665 52.5393 14.5229C52.6487 15.1793 52.7034 15.8357 52.5666 16.4374C52.3752 17.2579 51.8829 17.9143 51.3359 18.5981C51.1171 18.8989 50.8709 19.1998 50.6521 19.528C50.2692 20.075 49.9684 20.704 49.7769 21.3878C49.6128 21.9895 49.5308 22.5912 49.6128 23.2476C49.6675 23.8493 49.859 24.5057 50.1051 25.1621C50.2692 25.627 50.488 26.092 50.7068 26.5843C50.7615 26.092 50.8709 25.5723 51.035 25.0253C51.2812 24.2595 51.5547 23.4664 51.9102 22.7553Z" fill="white"/>
<path fill-rule="evenodd" clip-rule="evenodd" d="M56.4505 22.345C56.9701 21.3057 57.6812 20.4579 57.9274 19.3639C58.1735 18.2425 57.9274 16.875 57.2163 15.8904C56.8334 15.3708 56.3411 14.9332 55.7941 14.5503C55.9582 14.8511 56.1223 15.2067 56.3411 15.7537C56.5872 16.4101 56.8607 17.3673 56.6966 18.1058C56.5325 18.8442 55.9035 19.3912 55.4112 20.1023C54.9189 20.8134 54.5907 21.6886 54.6727 22.6459C54.7548 23.4664 55.165 24.3689 55.63 25.2715C55.6573 24.4236 55.9582 23.3023 56.4505 22.345Z" fill="white"/>
<path fill-rule="evenodd" clip-rule="evenodd" d="M57.1612 21.4695C56.9698 21.7977 56.7783 22.0985 56.6142 22.4267C56.3954 22.8917 56.204 23.384 56.0672 23.8763C55.9305 24.3686 55.8484 24.8609 55.8211 25.2711L55.7937 25.9822L55.4655 25.3532C55.2194 24.8882 55.0006 24.4506 54.8365 23.9857C54.6724 23.5207 54.5356 23.0831 54.4809 22.6455C54.4262 22.1806 54.4809 21.7156 54.6177 21.3054C54.7544 20.8131 54.9732 20.3755 55.2467 19.9926C55.4108 19.7738 55.5749 19.555 55.739 19.3635C56.0946 18.9259 56.3954 18.543 56.5048 18.0507C56.5869 17.6952 56.5595 17.3123 56.4775 16.902C56.3954 16.4918 56.2587 16.1089 56.1493 15.7807C56.0399 15.5072 55.9578 15.2884 55.8758 15.0969C55.7937 14.9055 55.7117 14.7414 55.6296 14.6046L55.2741 13.9482L55.9031 14.3585C56.1766 14.5499 56.4501 14.7414 56.7236 14.9875C56.9698 15.2063 57.2159 15.4525 57.4074 15.7533C57.7629 16.273 58.0091 16.8747 58.1458 17.5037C58.2826 18.1328 58.2826 18.8165 58.1458 19.3909C57.927 20.184 57.5441 20.8131 57.1612 21.4695ZM56.2587 22.2626C56.4228 21.9071 56.6416 21.5789 56.833 21.278C57.2159 20.649 57.5715 20.0473 57.7356 19.3362C57.845 18.7892 57.845 18.1875 57.7356 17.5858C57.6262 17.0114 57.38 16.4644 57.0518 15.9995C56.8604 15.7533 56.6689 15.5072 56.4228 15.3157C56.3681 15.261 56.3134 15.2337 56.2587 15.179C56.3134 15.3431 56.3954 15.5072 56.4775 15.6986C56.6142 16.0268 56.751 16.4371 56.833 16.8747C56.9151 17.3123 56.9424 17.7499 56.8604 18.1601C56.7236 18.7071 56.3681 19.1447 56.0125 19.6097C55.8484 19.8011 55.6843 19.9926 55.5476 20.2114C55.3014 20.5669 55.0826 20.9772 54.9732 21.4148C54.8638 21.7977 54.8091 22.2079 54.8638 22.6182C54.8912 23.0011 55.0279 23.4387 55.192 23.8489C55.3014 24.0951 55.4108 24.3412 55.5202 24.6147C55.5749 24.3412 55.6296 24.0677 55.7117 23.7669C55.8484 23.2746 56.0399 22.7549 56.2587 22.2626Z" fill="white"/>
<path fill-rule="evenodd" clip-rule="evenodd" d="M47.6167 21.9347C48.0543 20.9775 48.6834 20.2117 48.8748 19.1997C49.0663 18.1878 48.8201 16.9297 48.2184 16.0271C47.8902 15.5348 47.4526 15.1793 46.9603 14.8511C47.0971 15.1246 47.2612 15.4528 47.4526 15.9451C47.6714 16.5468 47.9449 17.422 47.8082 18.1057C47.6714 18.7895 47.1244 19.2818 46.7142 19.9382C46.3039 20.5946 46.0031 21.3877 46.1125 22.2629C46.1945 23.0287 46.5774 23.8219 46.9877 24.6424C46.9603 23.8492 47.2065 22.8099 47.6167 21.9347Z" fill="white"/>
<path fill-rule="evenodd" clip-rule="evenodd" d="M48.2452 21.1143C48.0811 21.4152 47.917 21.6887 47.7803 22.0169C47.5888 22.4271 47.4247 22.8921 47.3153 23.3297C47.2059 23.7946 47.1239 24.2322 47.1239 24.6151L47.0965 25.3536L46.7683 24.6972C46.5495 24.2869 46.3581 23.8767 46.194 23.4664C46.0299 23.0562 45.9205 22.6459 45.8658 22.263C45.8111 21.8254 45.8658 21.4152 45.9478 21.0323C46.0572 20.5947 46.2487 20.1844 46.4948 19.8289C46.6316 19.6101 46.7683 19.4186 46.9051 19.2545C47.2059 18.8716 47.4794 18.4887 47.5615 18.0511C47.6162 17.7229 47.5888 17.3674 47.5341 17.0118C47.4521 16.6563 47.3427 16.3007 47.2333 15.9999C47.1512 15.7537 47.0692 15.5623 46.9871 15.3982C46.9051 15.2341 46.823 15.0973 46.7683 14.9606L46.4128 14.3042L47.0418 14.7144C47.288 14.8785 47.5341 15.07 47.7529 15.2614C47.9717 15.4529 48.1905 15.699 48.3546 15.9452C48.6828 16.4101 48.9016 16.9571 49.011 17.5315C49.1204 18.1058 49.1478 18.7075 49.0384 19.2545C48.9016 19.9383 48.5734 20.5126 48.2452 21.1143ZM47.4521 21.8528C47.5888 21.5246 47.7803 21.2237 47.9444 20.9229C48.2726 20.3485 48.5734 19.7742 48.7102 19.1451C48.7922 18.6528 48.7922 18.1058 48.6828 17.5588C48.5734 17.0392 48.382 16.5469 48.0811 16.1093C47.917 15.8905 47.7256 15.6717 47.5341 15.4802L47.4794 15.4255C47.5341 15.5349 47.5888 15.6717 47.6435 15.8084C47.7529 16.1093 47.8897 16.4922 47.9717 16.8751C48.0538 17.2853 48.0811 17.6956 47.9991 18.0511C47.8897 18.5708 47.5888 18.981 47.288 19.3913C47.1512 19.5827 47.0145 19.7742 46.8777 19.9383C46.6589 20.2665 46.4948 20.6494 46.3854 21.0596C46.3034 21.4152 46.2487 21.7707 46.3034 22.1536C46.3307 22.5092 46.4675 22.8921 46.6042 23.275C46.6863 23.4664 46.7683 23.6852 46.8777 23.8767C46.9051 23.6579 46.9598 23.4117 47.0145 23.1656C47.0692 22.7827 47.2333 22.3177 47.4521 21.8528Z" fill="white"/>
</g>
<defs>
<clipPath id="clip0_29_334">
<rect width="103" height="103" fill="white"/>
</clipPath>
</defs>
</svg>
