<svg width="22" height="19" viewBox="0 0 22 19" fill="none" xmlns="http://www.w3.org/2000/svg">
<path d="M16.21 7.00002L11.83 0.44002C11.64 0.16002 11.32 0.0200195 11 0.0200195C10.68 0.0200195 10.36 0.16002 10.17 0.45002L5.79 7.00002H1C0.45 7.00002 0 7.45002 0 8.00002C0 8.09002 0.00999996 8.18002 0.04 8.27002L2.58 17.54C2.81 18.38 3.58 19 4.5 19H17.5C18.42 19 19.19 18.38 19.43 17.54L21.97 8.27002L22 8.00002C22 7.45002 21.55 7.00002 21 7.00002H16.21ZM8 7.00002L11 2.60002L14 7.00002H8ZM11 15C9.9 15 9 14.1 9 13C9 11.9 9.9 11 11 11C12.1 11 13 11.9 13 13C13 14.1 12.1 15 11 15Z" fill="url(#paint0_linear_1_378)"/>
<defs>
<linearGradient id="paint0_linear_1_378" x1="5.90104" y1="0.0200172" x2="19.48" y2="3.22666" gradientUnits="userSpaceOnUse">
<stop stop-color="#FD2828"/>
<stop offset="0.504743" stop-color="#FF4242"/>
<stop offset="1" stop-color="#FF6565"/>
</linearGradient>
</defs>
</svg>
