<svg width="46" height="46" viewBox="0 0 46 46" fill="none" xmlns="http://www.w3.org/2000/svg">
<path d="M13.6991 43.9945C10.7832 37.8923 12.3369 34.397 14.5771 31.1025C17.0308 27.4945 17.6654 23.925 17.6654 23.925C17.6654 23.925 19.5965 26.4468 18.8224 30.393C22.2307 26.5788 22.8762 20.4985 22.3592 18.1693C30.0647 23.584 33.3581 35.3072 28.9213 43.9972C52.5301 30.569 34.7941 10.4747 31.7059 8.2115C32.7344 10.4747 32.9313 14.3055 30.8497 16.1673C27.3293 2.75 18.6282 0 18.6282 0C19.6567 6.919 14.8972 14.487 10.3073 20.141C10.1459 17.3828 9.97355 15.477 8.53202 12.837C8.20925 17.8503 4.39891 21.9368 3.36495 26.9583C1.96718 33.759 4.41258 38.7393 13.6964 44L13.6991 43.9945Z" fill="url(#paint0_linear_25_312)"/>
<defs>
<linearGradient id="paint0_linear_25_312" x1="13.1927" y1="-5.31342e-06" x2="37.2117" y2="4.22612" gradientUnits="userSpaceOnUse">
<stop stop-color="#FD2828"/>
<stop offset="0.504743" stop-color="#FF4242"/>
<stop offset="1" stop-color="#FF6565"/>
</linearGradient>
</defs>
</svg>
