<svg width="49" height="46" viewBox="0 0 49 46" fill="none" xmlns="http://www.w3.org/2000/svg">
<path d="M41 11.0714C41 8.41964 38.8559 6.25 36.2353 6.25H31.4706C30.1603 6.25 29.0882 7.33482 29.0882 8.66071C29.0882 9.98661 30.1603 11.0714 31.4706 11.0714H36.2353V17.4598L27.9447 27.9464H19.5588V18.3036C19.5588 16.9777 18.4868 15.8929 17.1765 15.8929H10.0294C4.76441 15.8929 0.5 20.208 0.5 25.5357V30.3571C0.5 31.683 1.57206 32.7679 2.88235 32.7679H5.26471C5.26471 36.7696 8.45706 40 12.4118 40C16.3665 40 19.5588 36.7696 19.5588 32.7679H27.9447C29.3979 32.7679 30.7559 32.0929 31.6612 30.9598L39.9518 20.4732C40.6426 19.6054 41 18.5446 41 17.4598V11.0714ZM12.4118 35.1786C11.1015 35.1786 10.0294 34.0938 10.0294 32.7679H14.7941C14.7941 34.0938 13.7221 35.1786 12.4118 35.1786Z" fill="url(#paint0_linear_135_1950)"/>
<path d="M9.69853 8.5H17.0441C18.3908 8.5 19.4926 9.59038 19.4926 10.9231C19.4926 12.2558 18.3908 13.3462 17.0441 13.3462H9.69853C8.35184 13.3462 7.25 12.2558 7.25 10.9231C7.25 9.59038 8.35184 8.5 9.69853 8.5ZM41.5294 25.4615C37.4649 25.4615 34.1838 28.7085 34.1838 32.7308C34.1838 36.7531 37.4649 40 41.5294 40C45.594 40 48.875 36.7531 48.875 32.7308C48.875 28.7085 45.594 25.4615 41.5294 25.4615ZM41.5294 35.1538C40.1827 35.1538 39.0809 34.0635 39.0809 32.7308C39.0809 31.3981 40.1827 30.3077 41.5294 30.3077C42.8761 30.3077 43.9779 31.3981 43.9779 32.7308C43.9779 34.0635 42.8761 35.1538 41.5294 35.1538Z" fill="url(#paint1_linear_135_1950)"/>
<defs>
<linearGradient id="paint0_linear_135_1950" x1="11.3633" y1="6.25" x2="36.2666" y2="12.3383" gradientUnits="userSpaceOnUse">
<stop stop-color="#FD2828"/>
<stop offset="0.504743" stop-color="#FF4242"/>
<stop offset="1" stop-color="#FF6565"/>
</linearGradient>
<linearGradient id="paint1_linear_135_1950" x1="18.415" y1="8.5" x2="43.7068" y2="15.3089" gradientUnits="userSpaceOnUse">
<stop stop-color="#FD2828"/>
<stop offset="0.504743" stop-color="#FF4242"/>
<stop offset="1" stop-color="#FF6565"/>
</linearGradient>
</defs>
</svg>
