<svg width="46" height="46" viewBox="0 0 46 46" fill="none" xmlns="http://www.w3.org/2000/svg">
<path d="M20.1157 27.7937V42.1649H14.3715V27.7937H20.1138H20.1157ZM33.0724 24.9187H26.3602C25.979 24.9187 25.6133 25.0702 25.3438 25.3398C25.0742 25.6094 24.9227 25.975 24.9227 26.3562V33.0684C24.9227 33.8619 25.5667 34.5059 26.3602 34.5059H33.0724C33.4536 34.5059 33.8193 34.3545 34.0889 34.0849C34.3584 33.8153 34.5099 33.4497 34.5099 33.0684V26.3562C34.5099 25.975 34.3584 25.6094 34.0889 25.3398C33.8193 25.0702 33.4536 24.9187 33.0724 24.9187ZM31.633 27.7937V31.6309H27.7977V27.7937H31.6311H31.633ZM15.6518 13.4207H6.70864V15.6536C6.70864 17.9152 8.39148 19.7878 10.5726 20.083L10.8736 20.1137L11.1802 20.1232C13.5454 20.1232 15.4831 18.2852 15.6403 15.9583L15.6499 15.6517V13.4226L15.6518 13.4207ZM27.4681 13.4207H18.5268V15.6536C18.5268 17.9152 20.2096 19.7878 22.3908 20.083L22.6917 20.1137L22.9984 20.1232C25.3636 20.1232 27.3013 18.2852 27.4585 15.9583L27.4681 15.6517V13.4226V13.4207ZM39.2881 13.4207H30.3469V15.6536C30.3469 17.9152 32.0297 19.7878 34.2128 20.083L34.5118 20.1137L34.8185 20.1232C37.1856 20.1232 39.1214 18.2852 39.2786 15.9583L39.2901 15.6517L39.2881 13.4207ZM17.3653 6.7085H12.1251L8.56589 10.5457H16.1885L17.3653 6.7085ZM25.6204 6.7085H20.3745L19.1938 10.5457H26.803L25.6242 6.7085H25.6204ZM33.8716 6.7085H28.6315L29.8083 10.5457H37.4309L33.8736 6.7085H33.8716ZM4.21698 11.0057L10.4461 4.2935C10.6712 4.05064 10.9731 3.89289 11.301 3.84691L11.5003 3.8335H34.5003C34.8314 3.83362 35.1523 3.94803 35.4088 4.15741L35.5545 4.29158L41.8258 11.0574L41.8833 11.1302C42.0788 11.3909 42.167 11.6861 42.167 11.9736V15.6555C42.167 17.5607 41.4406 19.2972 40.2503 20.6005V40.7293C40.2502 41.077 40.1242 41.4128 39.8955 41.6747C39.6667 41.9365 39.3509 42.1066 39.0064 42.1534L38.8128 42.1668L22.9926 42.1649V26.3562C22.9926 25.975 22.8412 25.6094 22.5716 25.3398C22.302 25.0702 21.9364 24.9187 21.5551 24.9187H12.9378C12.5566 24.9187 12.1909 25.0702 11.9213 25.3398C11.6518 25.6094 11.5003 25.975 11.5003 26.3562V42.1649L7.18781 42.1668C6.84044 42.1668 6.50482 42.041 6.24303 41.8127C5.98123 41.5844 5.81097 41.269 5.76373 40.9248L5.75031 40.7293V20.6005C4.603 19.3452 3.92868 17.7296 3.84323 16.0312L3.83364 15.6536V12.056C3.81699 11.7829 3.88097 11.511 4.01764 11.274L4.11348 11.1283L4.21698 11.0037V11.0057Z" fill="url(#paint0_linear_29_318)"/>
<defs>
<linearGradient id="paint0_linear_29_318" x1="14.1139" y1="3.83349" x2="38.0997" y2="8.72046" gradientUnits="userSpaceOnUse">
<stop stop-color="#FD2828"/>
<stop offset="0.504743" stop-color="#FF4242"/>
<stop offset="1" stop-color="#FF6565"/>
</linearGradient>
</defs>
</svg>
